<svg width="40" height="40" viewBox="0 0 40 40" fill="none" xmlns="http://www.w3.org/2000/svg">
  <rect width="40" height="40" rx="8" fill="#4F46E5"/>
  <path d="M12 20C12 16.6863 14.6863 14 18 14H22C25.3137 14 28 16.6863 28 20C28 23.3137 25.3137 26 22 26H18C14.6863 26 12 23.3137 12 20Z" fill="white"/>
  <circle cx="16" cy="20" r="3" fill="#4F46E5"/>
  <circle cx="24" cy="20" r="3" fill="#4F46E5"/>
  <path d="M18 12V10C18 9.44772 18.4477 9 19 9H21C21.5523 9 22 9.44772 22 10V12" stroke="white" stroke-width="2" stroke-linecap="round"/>
  <path d="M14 20H10" stroke="white" stroke-width="2" stroke-linecap="round"/>
  <path d="M30 20H26" stroke="white" stroke-width="2" stroke-linecap="round"/>
</svg>